<?xml version="1.0" standalone="no"?>
<!DOCTYPE svg PUBLIC "-//W3C//DTD SVG 20010904//EN"
 "http://www.w3.org/TR/2001/REC-SVG-20010904/DTD/svg10.dtd">
<svg version="1.0" xmlns="http://www.w3.org/2000/svg"
 width="1280.000000pt" height="1023.000000pt" viewBox="0 0 1280.000000 1023.000000"
 preserveAspectRatio="xMidYMid meet">
<metadata>
Created by potrace 1.15, written by Peter Selinger 2001-2017
</metadata>
<g transform="translate(0.000000,1023.000000) scale(0.100000,-0.100000)"
fill="#ff9800" stroke="none">
<path d="M5790 10224 c-678 -21 -1425 -68 -1965 -125 -162 -17 -199 -24 -250
-48 -84 -39 -129 -82 -166 -157 -29 -59 -31 -69 -27 -146 6 -101 33 -164 98
-228 l46 -45 -27 -165 c-14 -91 -29 -186 -33 -212 -7 -45 -9 -48 -61 -72 -137
-62 -215 -200 -215 -377 l0 -59 -1596 0 -1596 0 6 -47 c62 -490 167 -2039 292
-4308 16 -293 17 -301 44 -355 69 -136 170 -236 305 -301 152 -74 -37 -69
2547 -69 l2328 0 2 538 c2 295 6 536 11 535 4 -2 417 -3 917 -3 l910 0 0 -535
0 -535 2343 0 c2313 0 2345 0 2423 20 155 39 277 120 371 245 101 134 100 128
117 641 9 247 23 683 31 969 51 1761 86 2526 140 3054 8 79 15 145 15 147 0 2
-754 4 -1675 4 l-1675 0 0 68 c-1 174 -72 300 -210 368 -30 15 -56 27 -56 28
-1 1 -16 94 -34 208 l-33 208 52 55 c91 96 121 211 86 330 -23 79 -113 172
-198 203 -114 43 -820 108 -1607 148 -282 14 -1394 26 -1660 18z m-1973 -302
c12 -7 34 -28 50 -48 34 -46 44 -134 19 -182 -25 -48 -33 -45 -29 11 11 149
-163 213 -261 97 -14 -18 -26 -42 -26 -56 0 -13 -4 -24 -10 -24 -18 0 -11 82
11 127 11 23 33 52 49 63 52 37 140 42 197 12z m5184 -8 c62 -31 108 -123 93
-187 l-7 -32 -17 52 c-9 29 -23 59 -30 68 -24 28 -68 45 -119 45 -39 0 -56 -6
-81 -26 -48 -41 -63 -79 -57 -143 5 -51 4 -54 -9 -36 -8 11 -19 37 -25 59 -39
144 117 268 252 200z m-1866 -344 c604 -21 1656 -98 1680 -122 4 -3 22 -103
41 -223 l35 -216 -45 -40 c-28 -25 -58 -66 -78 -107 -30 -60 -33 -77 -36 -169
l-4 -103 -2408 0 -2408 0 -4 103 c-4 126 -31 192 -108 266 l-50 48 35 219 c20
120 37 219 38 221 15 14 825 78 1317 103 559 29 1468 38 1995 20z m2131 -797
c8 -18 14 -65 14 -108 l0 -75 -192 2 -193 3 1 80 c0 49 5 90 14 105 14 25 14
25 21 -21 15 -98 66 -149 150 -149 56 0 106 30 132 80 14 27 17 48 12 95 -5
56 -4 59 11 40 9 -11 22 -34 30 -52z m-5849 -7 c-2 -51 2 -70 19 -92 37 -50
70 -68 124 -68 79 0 138 55 147 138 3 25 9 46 14 46 14 0 29 -72 29 -137 l0
-63 -195 0 -195 0 0 70 c0 41 6 86 15 107 14 33 33 63 40 63 2 0 2 -29 2 -64z"/>
<path d="M6369 4220 c-62 -33 -109 -106 -109 -170 0 -34 22 -91 47 -120 l26
-31 -21 -182 c-11 -100 -18 -185 -15 -189 2 -5 73 -8 158 -8 85 0 156 3 158 8
2 4 -5 89 -15 189 l-20 182 25 31 c25 29 47 86 47 120 0 34 -22 91 -47 121
-55 65 -162 87 -234 49z"/>
<path d="M310 3253 c0 -15 -29 -635 -65 -1378 -85 -1780 -89 -1864 -83 -1870
2 -3 67 1 144 9 155 17 483 41 764 57 102 6 504 13 895 16 697 5 1100 -1 2120
-32 1112 -34 1349 -39 2055 -38 684 0 1044 5 2075 33 969 26 1190 31 1885 37
767 6 1319 -3 1880 -32 289 -15 652 -40 747 -51 l51 -6 -4 58 c-3 33 -18 311
-35 619 -16 308 -41 764 -54 1013 -14 248 -36 658 -50 910 -36 654 -37 682
-42 682 -3 0 -17 -9 -32 -19 -40 -29 -200 -106 -256 -124 -168 -55 16 -51
-2567 -54 l-2378 -3 0 -575 0 -575 -920 0 -920 0 0 575 0 575 -2367 3 c-2167
3 -2374 4 -2434 20 -136 34 -280 94 -376 158 l-33 21 0 -29z"/>
<path d="M5940 2705 l0 -465 510 0 510 0 -2 463 -3 462 -507 3 -508 2 0 -465z"/>
</g>
</svg>
